# xmcd
#
# Track frame offsets: 
#        150
#        14875
#        27250
#        39675
#        51480
#        64725
#        75162
#        87665
#        99112
#        110532
#        119965
#        134077
#        146557
#        160142
#        172155
#        182090
#        195050
#        211270
#        227407
#        239107
#
# Disc length: 3386 seconds
#
# Revision: 0
# Processed by: cddbd v1.5.1PL2 Copyright (c) Steve Scherf et al.
# Submitted via: ExactAudioCopy v0.95b3
#
DISCID=220d3814
DTITLE=Various Artist - Country and Western 2
DYEAR=1992
DGENRE=Country
TTITLE0=Merle Haggard/Green Green Grass Of Home
TTITLE1=Hank Thompson/The Wild Side Of Life
TTITLE2=The Louvin Brothers/Alabama
TTITLE3=Tennessee Earnie Ford/16 Tons
TTITLE4=Merle Haggard/Okie From Muskogee
TTITLE5=Texas Bill Strength/North Wind
TTITLE6=Dean Martin/My Rifle,My Ponny And Me
TTITLE7=Sonny James/Young Love
TTITLE8=Jean Shepard/Dear John Leter
TTITLE9=Merle Haggard/Today I Standard Loving You Again
TTITLE10=Sonny James/You Are My Sunshine
TTITLE11=Merle Haggard/Silver Wings
TTITLE12=Glen Campbell/Gentle On My Mind
TTITLE13=The Louvin Brothers/Kentucky
TTITLE14=Anne Murray/Snowbird
TTITLE15=Tennessee Earrnie Ford/The Ballad Of Davy Crockett
TTITLE16=Billie Jo Spears/Blanket On The Ground
TTITLE17=Kenny Rogers/The Gambler
TTITLE18=Crystal Gayle/Don't It Make Brown Eyes Blue
TTITLE19=Slim Whitman/Indian Love Call
EXTD=
EXTT0=
EXTT1=
EXTT2=
EXTT3=
EXTT4=
EXTT5=
EXTT6=
EXTT7=
EXTT8=
EXTT9=
EXTT10=
EXTT11=
EXTT12=
EXTT13=
EXTT14=
EXTT15=
EXTT16=
EXTT17=
EXTT18=
EXTT19=
PLAYORDER=
